<svg width="326" height="38" fill="none" xmlns="http://www.w3.org/2000/svg"><path d="M.405 13.896h7.04v-7.24h2.88v7.24h7.04v2.88h-7.04v7.2h-2.88v-7.2H.405v-2.88ZM23.4 28.856l10.04-23.44 1.76-1.96-2.36.36h-11.4V.856h16.72v1.08l-11.52 26.92H23.4Zm34.992 8.8a20.219 20.219 0 0 1-3.12-4.24 26.968 26.968 0 0 1-2.08-4.68 32.19 32.19 0 0 1-1.12-4.88 32.9 32.9 0 0 1-.36-4.72c0-1.466.12-3.013.36-4.64.24-1.626.627-3.253 1.16-4.88a28.472 28.472 0 0 1 2.08-4.84 23.166 23.166 0 0 1 3.2-4.4l1.92 1.4a24.02 24.02 0 0 0-2.68 4.24 27.631 27.631 0 0 0-1.68 4.4 29.702 29.702 0 0 0-.92 4.48c-.16 1.467-.24 2.88-.24 4.24 0 1.28.094 2.68.28 4.2.214 1.494.534 3 .96 4.52a30.663 30.663 0 0 0 1.72 4.4 19.86 19.86 0 0 0 2.56 3.92l-2.04 1.48Zm4.851-15.48c0-1.68.44-3.133 1.32-4.36.88-1.253 2.254-2.386 4.12-3.4-.666-.4-1.293-.813-1.88-1.24a10.24 10.24 0 0 1-1.52-1.52 7.562 7.562 0 0 1-1.04-1.88c-.24-.693-.36-1.493-.36-2.4 0-1.04.174-1.986.52-2.84a6.485 6.485 0 0 1 1.56-2.2 7.674 7.674 0 0 1 2.44-1.44c.96-.346 2.04-.52 3.24-.52 1.12 0 2.134.16 3.04.48.907.32 1.667.76 2.28 1.32a5.756 5.756 0 0 1 1.48 2c.347.774.52 1.627.52 2.56 0 1.52-.346 2.867-1.04 4.04-.693 1.147-1.84 2.28-3.44 3.4.694.4 1.347.84 1.96 1.32a8.502 8.502 0 0 1 1.64 1.6c.48.587.854 1.254 1.12 2 .267.72.4 1.547.4 2.48 0 1.147-.186 2.2-.56 3.16a6.911 6.911 0 0 1-1.64 2.44c-.72.667-1.6 1.2-2.64 1.6-1.04.374-2.226.56-3.56.56-1.28 0-2.413-.186-3.4-.56-.986-.373-1.826-.88-2.52-1.52a6.424 6.424 0 0 1-1.52-2.24 7.68 7.68 0 0 1-.52-2.84Zm13.24-.4c0-.8-.16-1.493-.48-2.08a5.811 5.811 0 0 0-1.28-1.64 9.079 9.079 0 0 0-1.76-1.36c-.666-.4-1.36-.786-2.08-1.16-1.626.907-2.786 1.92-3.48 3.04-.693 1.12-1.04 2.187-1.04 3.2 0 .64.107 1.254.32 1.84.214.587.534 1.094.96 1.52a4.99 4.99 0 0 0 1.56 1.04c.64.24 1.374.36 2.2.36.667 0 1.307-.093 1.92-.28a5.15 5.15 0 0 0 1.6-.88c.48-.4.854-.893 1.12-1.48.294-.613.44-1.32.44-2.12Zm-9.48-14.48c0 .747.147 1.414.44 2 .294.56.68 1.067 1.16 1.52.507.454 1.08.88 1.72 1.28.64.374 1.307.734 2 1.08 1.2-.933 2.08-1.853 2.64-2.76.587-.906.88-1.906.88-3 0-1.36-.426-2.4-1.28-3.12-.826-.746-1.826-1.12-3-1.12-.72 0-1.36.12-1.92.36-.56.24-1.04.547-1.44.92-.4.374-.706.814-.92 1.32-.186.48-.28.987-.28 1.52Zm19.637 18.6h5.6V6.536l.4-2.36-1.6 1.88-4.4 3.16-1.52-2.04 8.8-6.8h1.44v25.52h5.48v2.96h-14.2v-2.96Zm35.317-18.68c0 1.414-.266 2.867-.8 4.36a26.123 26.123 0 0 1-2.04 4.44 43.372 43.372 0 0 1-2.8 4.4 106.51 106.51 0 0 1-3.12 4.04l-1.96 1.72v.16l2.56-.44h8.72v2.96h-15.92v-1.16c.587-.613 1.294-1.373 2.12-2.28a63.998 63.998 0 0 0 2.56-3 60.203 60.203 0 0 0 2.64-3.52 38.593 38.593 0 0 0 2.36-3.8 22.61 22.61 0 0 0 1.72-3.8c.427-1.253.64-2.44.64-3.56 0-1.306-.373-2.386-1.12-3.24-.746-.88-1.88-1.32-3.4-1.32-1.013 0-2 .214-2.96.64-.96.4-1.786.867-2.48 1.4l-1.32-2.28c.934-.8 2.04-1.426 3.32-1.88 1.28-.453 2.654-.68 4.12-.68 1.147 0 2.16.174 3.04.52.88.32 1.627.787 2.24 1.4a6.084 6.084 0 0 1 1.4 2.2c.32.827.48 1.734.48 2.72Zm6.077-6.84a20.198 20.198 0 0 1 3.12 4.24 24.553 24.553 0 0 1 2.04 4.72c.533 1.6.92 3.227 1.16 4.88.24 1.627.36 3.187.36 4.68 0 1.467-.12 3.014-.36 4.64a30.566 30.566 0 0 1-1.16 4.92 27.134 27.134 0 0 1-2.12 4.8 21.85 21.85 0 0 1-3.16 4.4l-1.92-1.4a24 24 0 0 0 2.68-4.24 24.382 24.382 0 0 0 1.68-4.44c.427-1.493.72-2.973.88-4.44.187-1.466.28-2.88.28-4.24 0-1.28-.107-2.666-.32-4.16-.213-1.493-.547-3-1-4.52-.427-1.52-.987-3-1.68-4.44a18.561 18.561 0 0 0-2.52-3.92l2.04-1.48Zm22.475 21.8c0-1.68.44-3.133 1.32-4.36.88-1.253 2.253-2.386 4.12-3.4-.667-.4-1.293-.813-1.88-1.24-.56-.453-1.067-.96-1.52-1.52a7.559 7.559 0 0 1-1.04-1.88c-.24-.693-.36-1.493-.36-2.4 0-1.04.173-1.986.52-2.84a6.474 6.474 0 0 1 1.56-2.2 7.673 7.673 0 0 1 2.44-1.44c.96-.346 2.04-.52 3.24-.52 1.12 0 2.133.16 3.04.48.907.32 1.667.76 2.28 1.32a5.761 5.761 0 0 1 1.48 2c.347.774.52 1.627.52 2.56 0 1.52-.347 2.867-1.04 4.04-.693 1.147-1.84 2.28-3.44 3.4.693.4 1.347.84 1.96 1.32a8.494 8.494 0 0 1 1.64 1.6c.48.587.853 1.254 1.12 2 .267.72.4 1.547.4 2.48 0 1.147-.187 2.2-.56 3.16a6.907 6.907 0 0 1-1.64 2.44c-.72.667-1.6 1.2-2.64 1.6-1.04.374-2.227.56-3.56.56-1.28 0-2.413-.186-3.4-.56-.987-.373-1.827-.88-2.52-1.52a6.423 6.423 0 0 1-1.52-2.24 7.672 7.672 0 0 1-.52-2.84Zm13.24-.4c0-.8-.16-1.493-.48-2.08a5.819 5.819 0 0 0-1.28-1.64 9.082 9.082 0 0 0-1.76-1.36c-.667-.4-1.36-.786-2.08-1.16-1.627.907-2.787 1.92-3.48 3.04-.693 1.12-1.04 2.187-1.04 3.2 0 .64.107 1.254.32 1.84.213.587.533 1.094.96 1.52.427.427.947.774 1.56 1.04.64.24 1.373.36 2.2.36.667 0 1.307-.093 1.92-.28a5.15 5.15 0 0 0 1.6-.88c.48-.4.853-.893 1.12-1.48.293-.613.44-1.32.44-2.12Zm-9.48-14.48c0 .747.147 1.414.44 2a5.75 5.75 0 0 0 1.16 1.52c.507.454 1.08.88 1.72 1.28.64.374 1.307.734 2 1.08 1.2-.933 2.08-1.853 2.64-2.76.587-.906.88-1.906.88-3 0-1.36-.427-2.4-1.28-3.12-.827-.746-1.827-1.12-3-1.12-.72 0-1.36.12-1.92.36-.56.24-1.04.547-1.44.92a3.8 3.8 0 0 0-.92 1.32 4.15 4.15 0 0 0-.28 1.52Zm19.637 18.6h5.6V6.536l.4-2.36-1.6 1.88-4.4 3.16-1.52-2.04 8.8-6.8h1.44v25.52h5.48v2.96h-14.2v-2.96Zm35.317-18.68c0 1.414-.267 2.867-.8 4.36a26.279 26.279 0 0 1-2.04 4.44 43.547 43.547 0 0 1-2.8 4.4 106.51 106.51 0 0 1-3.12 4.04l-1.96 1.72v.16l2.56-.44h8.72v2.96h-15.92v-1.16a137.54 137.54 0 0 0 2.12-2.28 64.604 64.604 0 0 0 2.56-3 61.114 61.114 0 0 0 2.64-3.52 38.783 38.783 0 0 0 2.36-3.8 22.69 22.69 0 0 0 1.72-3.8c.426-1.253.64-2.44.64-3.56 0-1.306-.374-2.386-1.12-3.24-.747-.88-1.88-1.32-3.4-1.32-1.014 0-2 .214-2.96.64-.96.4-1.787.867-2.48 1.4l-1.32-2.28c.933-.8 2.04-1.426 3.32-1.88 1.28-.453 2.653-.68 4.12-.68 1.146 0 2.16.174 3.04.52.88.32 1.626.787 2.24 1.4a6.097 6.097 0 0 1 1.4 2.2c.32.827.48 1.734.48 2.72Zm6.317 8.64h9.68v2.96h-9.68v-2.96Zm16.374 10.04h5.6V6.536l.4-2.36-1.6 1.88-4.4 3.16-1.52-2.04 8.8-6.8h1.44v25.52h5.48v2.96h-14.2v-2.96Zm35.317-18.68c0 1.414-.267 2.867-.8 4.36a26.279 26.279 0 0 1-2.04 4.44 43.547 43.547 0 0 1-2.8 4.4 106.51 106.51 0 0 1-3.12 4.04l-1.96 1.72v.16l2.56-.44h8.72v2.96h-15.92v-1.16a137.54 137.54 0 0 0 2.12-2.28 64.604 64.604 0 0 0 2.56-3 61.114 61.114 0 0 0 2.64-3.52 38.783 38.783 0 0 0 2.36-3.8 22.69 22.69 0 0 0 1.72-3.8c.426-1.253.64-2.44.64-3.56 0-1.306-.374-2.386-1.12-3.24-.747-.88-1.88-1.32-3.4-1.32-1.014 0-2 .214-2.96.64-.96.4-1.787.867-2.48 1.4l-1.32-2.28c.933-.8 2.04-1.426 3.32-1.88 1.28-.453 2.653-.68 4.12-.68 1.146 0 2.16.174 3.04.52.88.32 1.626.787 2.24 1.4a6.097 6.097 0 0 1 1.4 2.2c.32.827.48 1.734.48 2.72Zm6.317 8.64h9.68v2.96h-9.68v-2.96Zm16.374 10.04h5.6V6.536l.4-2.36-1.6 1.88-4.4 3.16-1.52-2.04 8.8-6.8h1.44v25.52h5.48v2.96h-14.2v-2.96Zm35.316-18.68c0 1.414-.266 2.867-.8 4.36a26.123 26.123 0 0 1-2.04 4.44 43.372 43.372 0 0 1-2.8 4.4 106.51 106.51 0 0 1-3.12 4.04l-1.96 1.72v.16l2.56-.44h8.72v2.96h-15.92v-1.16c.587-.613 1.294-1.373 2.12-2.28a63.998 63.998 0 0 0 2.56-3 60.203 60.203 0 0 0 2.64-3.52 38.593 38.593 0 0 0 2.36-3.8 22.61 22.61 0 0 0 1.72-3.8c.427-1.253.64-2.44.64-3.56 0-1.306-.373-2.386-1.12-3.24-.746-.88-1.88-1.32-3.4-1.32-1.013 0-2 .214-2.96.64-.96.4-1.786.867-2.48 1.4l-1.32-2.28c.934-.8 2.04-1.426 3.32-1.88 1.28-.453 2.654-.68 4.12-.68 1.147 0 2.16.174 3.04.52.88.32 1.627.787 2.24 1.4a6.084 6.084 0 0 1 1.4 2.2c.32.827.48 1.734.48 2.72Z" fill="#000"/></svg>